<mxfile host="app.diagrams.net" agent="Mozilla/5.0 (Windows NT 10.0; Win64; x64) AppleWebKit/537.36 (KHTML, like Gecko) Chrome/140.0.0.0 Safari/537.36" version="28.2.1">
  <diagram name="Page-1" id="aXFZ2an5IjmpmehYJqc1">
    <mxGraphModel dx="2056" dy="500" grid="1" gridSize="10" guides="1" tooltips="1" connect="1" arrows="1" fold="1" page="1" pageScale="1" pageWidth="850" pageHeight="1100" math="0" shadow="0">
      <root>
        <mxCell id="0" />
        <mxCell id="1" parent="0" />
        <mxCell id="iYkkBF6MIsekrppOnUCG-5" value="" style="ellipse;whiteSpace=wrap;html=1;align=center;fontStyle=4;" parent="1" vertex="1">
          <mxGeometry y="60" width="120" height="40" as="geometry" />
        </mxCell>
        <mxCell id="iYkkBF6MIsekrppOnUCG-6" value="email" style="ellipse;whiteSpace=wrap;html=1;align=center;fontStyle=4;" parent="1" vertex="1">
          <mxGeometry x="10" y="180" width="100" height="40" as="geometry" />
        </mxCell>
        <mxCell id="iYkkBF6MIsekrppOnUCG-63" style="edgeStyle=orthogonalEdgeStyle;rounded=0;orthogonalLoop=1;jettySize=auto;html=1;exitX=0.5;exitY=1;exitDx=0;exitDy=0;" parent="1" source="iYkkBF6MIsekrppOnUCG-7" edge="1">
          <mxGeometry relative="1" as="geometry">
            <mxPoint x="184.80952380952363" y="70.33333333333331" as="targetPoint" />
          </mxGeometry>
        </mxCell>
        <mxCell id="iYkkBF6MIsekrppOnUCG-7" value="" style="ellipse;whiteSpace=wrap;html=1;align=center;fontStyle=4;" parent="1" vertex="1">
          <mxGeometry x="120" y="30" width="130" height="40" as="geometry" />
        </mxCell>
        <mxCell id="iYkkBF6MIsekrppOnUCG-8" value="name" style="ellipse;whiteSpace=wrap;html=1;align=center;fontStyle=4;" parent="1" vertex="1">
          <mxGeometry x="-50" y="120" width="100" height="40" as="geometry" />
        </mxCell>
        <mxCell id="iYkkBF6MIsekrppOnUCG-9" value="input_type" style="ellipse;whiteSpace=wrap;html=1;align=center;" parent="1" vertex="1">
          <mxGeometry x="-60" y="420" width="100" height="40" as="geometry" />
        </mxCell>
        <mxCell id="iYkkBF6MIsekrppOnUCG-10" value="timestamp" style="ellipse;whiteSpace=wrap;html=1;align=center;" parent="1" vertex="1">
          <mxGeometry x="200" y="420" width="100" height="40" as="geometry" />
        </mxCell>
        <mxCell id="iYkkBF6MIsekrppOnUCG-11" value="input_value" style="ellipse;whiteSpace=wrap;html=1;align=center;" parent="1" vertex="1">
          <mxGeometry x="70" y="460" width="100" height="40" as="geometry" />
        </mxCell>
        <mxCell id="iYkkBF6MIsekrppOnUCG-12" value="" style="ellipse;whiteSpace=wrap;html=1;align=center;" parent="1" vertex="1">
          <mxGeometry x="-80" y="350" width="100" height="40" as="geometry" />
        </mxCell>
        <mxCell id="iYkkBF6MIsekrppOnUCG-13" value="" style="ellipse;whiteSpace=wrap;html=1;align=center;" parent="1" vertex="1">
          <mxGeometry x="-50" y="280" width="120" height="50" as="geometry" />
        </mxCell>
        <mxCell id="iYkkBF6MIsekrppOnUCG-15" value="" style="ellipse;whiteSpace=wrap;html=1;align=center;" parent="1" vertex="1">
          <mxGeometry x="520" y="430" width="140" height="50" as="geometry" />
        </mxCell>
        <mxCell id="iYkkBF6MIsekrppOnUCG-16" value="" style="ellipse;whiteSpace=wrap;html=1;align=center;" parent="1" vertex="1">
          <mxGeometry x="745" y="255" width="100" height="40" as="geometry" />
        </mxCell>
        <mxCell id="iYkkBF6MIsekrppOnUCG-17" value="" style="ellipse;whiteSpace=wrap;html=1;align=center;" parent="1" vertex="1">
          <mxGeometry x="400" y="20" width="130" height="60" as="geometry" />
        </mxCell>
        <mxCell id="iYkkBF6MIsekrppOnUCG-18" value="mood_name" style="ellipse;whiteSpace=wrap;html=1;align=center;" parent="1" vertex="1">
          <mxGeometry x="560" y="10" width="100" height="40" as="geometry" />
        </mxCell>
        <mxCell id="iYkkBF6MIsekrppOnUCG-19" value="description" style="ellipse;whiteSpace=wrap;html=1;align=center;" parent="1" vertex="1">
          <mxGeometry x="650" y="70" width="100" height="40" as="geometry" />
        </mxCell>
        <mxCell id="iYkkBF6MIsekrppOnUCG-20" value="gives" style="shape=rhombus;perimeter=rhombusPerimeter;whiteSpace=wrap;html=1;align=center;" parent="1" vertex="1">
          <mxGeometry x="160" y="240" width="110" height="50" as="geometry" />
        </mxCell>
        <mxCell id="iYkkBF6MIsekrppOnUCG-24" value="User" style="whiteSpace=wrap;html=1;align=center;" parent="1" vertex="1">
          <mxGeometry x="140" y="120" width="100" height="40" as="geometry" />
        </mxCell>
        <mxCell id="iYkkBF6MIsekrppOnUCG-27" value="Mood" style="whiteSpace=wrap;html=1;align=center;" parent="1" vertex="1">
          <mxGeometry x="500" y="110" width="100" height="40" as="geometry" />
        </mxCell>
        <mxCell id="iYkkBF6MIsekrppOnUCG-28" value="Input" style="whiteSpace=wrap;html=1;align=center;" parent="1" vertex="1">
          <mxGeometry x="90" y="350" width="100" height="40" as="geometry" />
        </mxCell>
        <mxCell id="iYkkBF6MIsekrppOnUCG-34" value="" style="shape=table;startSize=0;container=1;collapsible=1;childLayout=tableLayout;fixedRows=1;rowLines=0;fontStyle=0;align=center;resizeLast=1;strokeColor=none;fillColor=none;collapsible=0;" parent="1" vertex="1">
          <mxGeometry x="15" y="60" width="95" height="30" as="geometry" />
        </mxCell>
        <mxCell id="iYkkBF6MIsekrppOnUCG-35" value="" style="shape=tableRow;horizontal=0;startSize=0;swimlaneHead=0;swimlaneBody=0;fillColor=none;collapsible=0;dropTarget=0;points=[[0,0.5],[1,0.5]];portConstraint=eastwest;top=0;left=0;right=0;bottom=1;" parent="iYkkBF6MIsekrppOnUCG-34" vertex="1">
          <mxGeometry width="95" height="30" as="geometry" />
        </mxCell>
        <mxCell id="iYkkBF6MIsekrppOnUCG-36" value="PK" style="shape=partialRectangle;connectable=0;fillColor=none;top=0;left=0;bottom=0;right=0;fontStyle=1;overflow=hidden;whiteSpace=wrap;html=1;" parent="iYkkBF6MIsekrppOnUCG-35" vertex="1">
          <mxGeometry width="30" height="30" as="geometry">
            <mxRectangle width="30" height="30" as="alternateBounds" />
          </mxGeometry>
        </mxCell>
        <mxCell id="iYkkBF6MIsekrppOnUCG-37" value="user_ID" style="shape=partialRectangle;connectable=0;fillColor=none;top=0;left=0;bottom=0;right=0;align=left;spacingLeft=6;fontStyle=5;overflow=hidden;whiteSpace=wrap;html=1;" parent="iYkkBF6MIsekrppOnUCG-35" vertex="1">
          <mxGeometry x="30" width="65" height="30" as="geometry">
            <mxRectangle width="65" height="30" as="alternateBounds" />
          </mxGeometry>
        </mxCell>
        <mxCell id="iYkkBF6MIsekrppOnUCG-38" value="" style="shape=table;startSize=0;container=1;collapsible=1;childLayout=tableLayout;fixedRows=1;rowLines=0;fontStyle=0;align=center;resizeLast=1;strokeColor=none;fillColor=none;collapsible=0;" parent="1" vertex="1">
          <mxGeometry x="130" y="30" width="110" height="30" as="geometry" />
        </mxCell>
        <mxCell id="iYkkBF6MIsekrppOnUCG-39" value="" style="shape=tableRow;horizontal=0;startSize=0;swimlaneHead=0;swimlaneBody=0;fillColor=none;collapsible=0;dropTarget=0;points=[[0,0.5],[1,0.5]];portConstraint=eastwest;top=0;left=0;right=0;bottom=1;" parent="iYkkBF6MIsekrppOnUCG-38" vertex="1">
          <mxGeometry width="110" height="30" as="geometry" />
        </mxCell>
        <mxCell id="iYkkBF6MIsekrppOnUCG-40" value="PK" style="shape=partialRectangle;connectable=0;fillColor=none;top=0;left=0;bottom=0;right=0;fontStyle=1;overflow=hidden;whiteSpace=wrap;html=1;" parent="iYkkBF6MIsekrppOnUCG-39" vertex="1">
          <mxGeometry width="30" height="30" as="geometry">
            <mxRectangle width="30" height="30" as="alternateBounds" />
          </mxGeometry>
        </mxCell>
        <mxCell id="iYkkBF6MIsekrppOnUCG-41" value="password" style="shape=partialRectangle;connectable=0;fillColor=none;top=0;left=0;bottom=0;right=0;align=left;spacingLeft=6;fontStyle=5;overflow=hidden;whiteSpace=wrap;html=1;" parent="iYkkBF6MIsekrppOnUCG-39" vertex="1">
          <mxGeometry x="30" width="80" height="30" as="geometry">
            <mxRectangle width="80" height="30" as="alternateBounds" />
          </mxGeometry>
        </mxCell>
        <mxCell id="iYkkBF6MIsekrppOnUCG-43" value="" style="shape=table;startSize=0;container=1;collapsible=1;childLayout=tableLayout;fixedRows=1;rowLines=0;fontStyle=0;align=center;resizeLast=1;strokeColor=none;fillColor=none;collapsible=0;" parent="1" vertex="1">
          <mxGeometry x="-40" y="290" width="100" height="30" as="geometry" />
        </mxCell>
        <mxCell id="iYkkBF6MIsekrppOnUCG-44" value="" style="shape=tableRow;horizontal=0;startSize=0;swimlaneHead=0;swimlaneBody=0;fillColor=none;collapsible=0;dropTarget=0;points=[[0,0.5],[1,0.5]];portConstraint=eastwest;top=0;left=0;right=0;bottom=1;" parent="iYkkBF6MIsekrppOnUCG-43" vertex="1">
          <mxGeometry width="100" height="30" as="geometry" />
        </mxCell>
        <mxCell id="iYkkBF6MIsekrppOnUCG-45" value="PK" style="shape=partialRectangle;connectable=0;fillColor=none;top=0;left=0;bottom=0;right=0;fontStyle=1;overflow=hidden;whiteSpace=wrap;html=1;" parent="iYkkBF6MIsekrppOnUCG-44" vertex="1">
          <mxGeometry width="30" height="30" as="geometry">
            <mxRectangle width="30" height="30" as="alternateBounds" />
          </mxGeometry>
        </mxCell>
        <mxCell id="iYkkBF6MIsekrppOnUCG-46" value="input_ID" style="shape=partialRectangle;connectable=0;fillColor=none;top=0;left=0;bottom=0;right=0;align=left;spacingLeft=6;fontStyle=5;overflow=hidden;whiteSpace=wrap;html=1;" parent="iYkkBF6MIsekrppOnUCG-44" vertex="1">
          <mxGeometry x="30" width="70" height="30" as="geometry">
            <mxRectangle width="70" height="30" as="alternateBounds" />
          </mxGeometry>
        </mxCell>
        <mxCell id="iYkkBF6MIsekrppOnUCG-47" value="" style="shape=table;startSize=0;container=1;collapsible=1;childLayout=tableLayout;fixedRows=1;rowLines=0;fontStyle=0;align=center;resizeLast=1;strokeColor=none;fillColor=none;collapsible=0;" parent="1" vertex="1">
          <mxGeometry x="-70" y="355" width="80" height="30" as="geometry" />
        </mxCell>
        <mxCell id="iYkkBF6MIsekrppOnUCG-48" value="" style="shape=tableRow;horizontal=0;startSize=0;swimlaneHead=0;swimlaneBody=0;fillColor=none;collapsible=0;dropTarget=0;points=[[0,0.5],[1,0.5]];portConstraint=eastwest;top=0;left=0;right=0;bottom=0;" parent="iYkkBF6MIsekrppOnUCG-47" vertex="1">
          <mxGeometry width="80" height="30" as="geometry" />
        </mxCell>
        <mxCell id="iYkkBF6MIsekrppOnUCG-49" value="FK" style="shape=partialRectangle;connectable=0;fillColor=none;top=0;left=0;bottom=0;right=0;fontStyle=0;overflow=hidden;whiteSpace=wrap;html=1;" parent="iYkkBF6MIsekrppOnUCG-48" vertex="1">
          <mxGeometry width="30" height="30" as="geometry">
            <mxRectangle width="30" height="30" as="alternateBounds" />
          </mxGeometry>
        </mxCell>
        <mxCell id="iYkkBF6MIsekrppOnUCG-50" value="user_ID" style="shape=partialRectangle;connectable=0;fillColor=none;top=0;left=0;bottom=0;right=0;align=left;spacingLeft=6;fontStyle=0;overflow=hidden;whiteSpace=wrap;html=1;" parent="iYkkBF6MIsekrppOnUCG-48" vertex="1">
          <mxGeometry x="30" width="50" height="30" as="geometry">
            <mxRectangle width="50" height="30" as="alternateBounds" />
          </mxGeometry>
        </mxCell>
        <mxCell id="iYkkBF6MIsekrppOnUCG-51" value="" style="shape=table;startSize=0;container=1;collapsible=1;childLayout=tableLayout;fixedRows=1;rowLines=0;fontStyle=0;align=center;resizeLast=1;strokeColor=none;fillColor=none;collapsible=0;" parent="1" vertex="1">
          <mxGeometry x="540" y="440" width="100" height="30" as="geometry" />
        </mxCell>
        <mxCell id="iYkkBF6MIsekrppOnUCG-52" value="" style="shape=tableRow;horizontal=0;startSize=0;swimlaneHead=0;swimlaneBody=0;fillColor=none;collapsible=0;dropTarget=0;points=[[0,0.5],[1,0.5]];portConstraint=eastwest;top=0;left=0;right=0;bottom=1;" parent="iYkkBF6MIsekrppOnUCG-51" vertex="1">
          <mxGeometry width="100" height="30" as="geometry" />
        </mxCell>
        <mxCell id="iYkkBF6MIsekrppOnUCG-53" value="PK" style="shape=partialRectangle;connectable=0;fillColor=none;top=0;left=0;bottom=0;right=0;fontStyle=1;overflow=hidden;whiteSpace=wrap;html=1;" parent="iYkkBF6MIsekrppOnUCG-52" vertex="1">
          <mxGeometry width="30" height="30" as="geometry">
            <mxRectangle width="30" height="30" as="alternateBounds" />
          </mxGeometry>
        </mxCell>
        <mxCell id="iYkkBF6MIsekrppOnUCG-54" value="playlist_ID" style="shape=partialRectangle;connectable=0;fillColor=none;top=0;left=0;bottom=0;right=0;align=left;spacingLeft=6;fontStyle=5;overflow=hidden;whiteSpace=wrap;html=1;" parent="iYkkBF6MIsekrppOnUCG-52" vertex="1">
          <mxGeometry x="30" width="70" height="30" as="geometry">
            <mxRectangle width="70" height="30" as="alternateBounds" />
          </mxGeometry>
        </mxCell>
        <mxCell id="iYkkBF6MIsekrppOnUCG-55" value="" style="shape=table;startSize=0;container=1;collapsible=1;childLayout=tableLayout;fixedRows=1;rowLines=0;fontStyle=0;align=center;resizeLast=1;strokeColor=none;fillColor=none;collapsible=0;" parent="1" vertex="1">
          <mxGeometry x="750" y="260" width="90" height="30" as="geometry" />
        </mxCell>
        <mxCell id="iYkkBF6MIsekrppOnUCG-56" value="" style="shape=tableRow;horizontal=0;startSize=0;swimlaneHead=0;swimlaneBody=0;fillColor=none;collapsible=0;dropTarget=0;points=[[0,0.5],[1,0.5]];portConstraint=eastwest;top=0;left=0;right=0;bottom=0;" parent="iYkkBF6MIsekrppOnUCG-55" vertex="1">
          <mxGeometry width="90" height="30" as="geometry" />
        </mxCell>
        <mxCell id="iYkkBF6MIsekrppOnUCG-57" value="FK" style="shape=partialRectangle;connectable=0;fillColor=none;top=0;left=0;bottom=0;right=0;fontStyle=0;overflow=hidden;whiteSpace=wrap;html=1;" parent="iYkkBF6MIsekrppOnUCG-56" vertex="1">
          <mxGeometry width="30" height="30" as="geometry">
            <mxRectangle width="30" height="30" as="alternateBounds" />
          </mxGeometry>
        </mxCell>
        <mxCell id="iYkkBF6MIsekrppOnUCG-58" value="song_ID" style="shape=partialRectangle;connectable=0;fillColor=none;top=0;left=0;bottom=0;right=0;align=left;spacingLeft=6;fontStyle=0;overflow=hidden;whiteSpace=wrap;html=1;" parent="iYkkBF6MIsekrppOnUCG-56" vertex="1">
          <mxGeometry x="30" width="60" height="30" as="geometry">
            <mxRectangle width="60" height="30" as="alternateBounds" />
          </mxGeometry>
        </mxCell>
        <mxCell id="iYkkBF6MIsekrppOnUCG-59" value="" style="shape=table;startSize=0;container=1;collapsible=1;childLayout=tableLayout;fixedRows=1;rowLines=0;fontStyle=0;align=center;resizeLast=1;strokeColor=none;fillColor=none;collapsible=0;" parent="1" vertex="1">
          <mxGeometry x="410" y="35" width="110" height="30" as="geometry" />
        </mxCell>
        <mxCell id="iYkkBF6MIsekrppOnUCG-60" value="" style="shape=tableRow;horizontal=0;startSize=0;swimlaneHead=0;swimlaneBody=0;fillColor=none;collapsible=0;dropTarget=0;points=[[0,0.5],[1,0.5]];portConstraint=eastwest;top=0;left=0;right=0;bottom=1;" parent="iYkkBF6MIsekrppOnUCG-59" vertex="1">
          <mxGeometry width="110" height="30" as="geometry" />
        </mxCell>
        <mxCell id="iYkkBF6MIsekrppOnUCG-61" value="PK" style="shape=partialRectangle;connectable=0;fillColor=none;top=0;left=0;bottom=0;right=0;fontStyle=1;overflow=hidden;whiteSpace=wrap;html=1;" parent="iYkkBF6MIsekrppOnUCG-60" vertex="1">
          <mxGeometry width="30" height="30" as="geometry">
            <mxRectangle width="30" height="30" as="alternateBounds" />
          </mxGeometry>
        </mxCell>
        <mxCell id="iYkkBF6MIsekrppOnUCG-62" value="mood_ID" style="shape=partialRectangle;connectable=0;fillColor=none;top=0;left=0;bottom=0;right=0;align=left;spacingLeft=6;fontStyle=5;overflow=hidden;whiteSpace=wrap;html=1;" parent="iYkkBF6MIsekrppOnUCG-60" vertex="1">
          <mxGeometry x="30" width="80" height="30" as="geometry">
            <mxRectangle width="80" height="30" as="alternateBounds" />
          </mxGeometry>
        </mxCell>
        <mxCell id="iYkkBF6MIsekrppOnUCG-67" value="" style="endArrow=none;html=1;rounded=0;exitX=0.5;exitY=1;exitDx=0;exitDy=0;entryX=0.5;entryY=0;entryDx=0;entryDy=0;" parent="1" source="iYkkBF6MIsekrppOnUCG-24" target="iYkkBF6MIsekrppOnUCG-20" edge="1">
          <mxGeometry relative="1" as="geometry">
            <mxPoint x="230" y="280" as="sourcePoint" />
            <mxPoint x="390" y="280" as="targetPoint" />
          </mxGeometry>
        </mxCell>
        <mxCell id="iYkkBF6MIsekrppOnUCG-69" value="" style="endArrow=none;html=1;rounded=0;entryX=0;entryY=0;entryDx=0;entryDy=0;exitX=0.653;exitY=1.024;exitDx=0;exitDy=0;exitPerimeter=0;shadow=1;" parent="1" edge="1">
          <mxGeometry relative="1" as="geometry">
            <mxPoint x="155.23999999999995" y="390.00000000000006" as="sourcePoint" />
            <mxPoint x="214.75422799840175" y="424.830361307047" as="targetPoint" />
            <Array as="points" />
          </mxGeometry>
        </mxCell>
        <mxCell id="iYkkBF6MIsekrppOnUCG-70" value="" style="endArrow=none;html=1;rounded=0;" parent="1" edge="1">
          <mxGeometry relative="1" as="geometry">
            <mxPoint x="20" y="370" as="sourcePoint" />
            <mxPoint x="90" y="369.52" as="targetPoint" />
          </mxGeometry>
        </mxCell>
        <mxCell id="iYkkBF6MIsekrppOnUCG-71" value="" style="endArrow=none;html=1;rounded=0;entryX=0.25;entryY=1;entryDx=0;entryDy=0;" parent="1" target="iYkkBF6MIsekrppOnUCG-28" edge="1">
          <mxGeometry relative="1" as="geometry">
            <mxPoint x="30" y="429.05" as="sourcePoint" />
            <mxPoint x="190" y="429.05" as="targetPoint" />
          </mxGeometry>
        </mxCell>
        <mxCell id="iYkkBF6MIsekrppOnUCG-72" value="" style="endArrow=none;html=1;rounded=0;entryX=0.5;entryY=0;entryDx=0;entryDy=0;exitX=0.424;exitY=1.024;exitDx=0;exitDy=0;exitPerimeter=0;" parent="1" source="iYkkBF6MIsekrppOnUCG-28" target="iYkkBF6MIsekrppOnUCG-11" edge="1">
          <mxGeometry relative="1" as="geometry">
            <mxPoint x="120" y="390" as="sourcePoint" />
            <mxPoint x="280" y="390" as="targetPoint" />
          </mxGeometry>
        </mxCell>
        <mxCell id="iYkkBF6MIsekrppOnUCG-73" value="" style="endArrow=none;html=1;rounded=0;entryX=0.062;entryY=0.008;entryDx=0;entryDy=0;entryPerimeter=0;" parent="1" target="iYkkBF6MIsekrppOnUCG-28" edge="1">
          <mxGeometry relative="1" as="geometry">
            <mxPoint x="30" y="329.52" as="sourcePoint" />
            <mxPoint x="190" y="329.52" as="targetPoint" />
          </mxGeometry>
        </mxCell>
        <mxCell id="iYkkBF6MIsekrppOnUCG-74" value="" style="endArrow=none;html=1;rounded=0;" parent="1" edge="1">
          <mxGeometry relative="1" as="geometry">
            <mxPoint x="50" y="140" as="sourcePoint" />
            <mxPoint x="142.5" y="139.52" as="targetPoint" />
          </mxGeometry>
        </mxCell>
        <mxCell id="iYkkBF6MIsekrppOnUCG-76" value="" style="endArrow=none;html=1;rounded=0;exitX=0.5;exitY=1;exitDx=0;exitDy=0;" parent="1" source="iYkkBF6MIsekrppOnUCG-7" edge="1">
          <mxGeometry relative="1" as="geometry">
            <mxPoint x="184.51999999999998" y="65" as="sourcePoint" />
            <mxPoint x="185" y="120" as="targetPoint" />
          </mxGeometry>
        </mxCell>
        <mxCell id="iYkkBF6MIsekrppOnUCG-77" value="" style="endArrow=none;html=1;rounded=0;exitX=1.016;exitY=0.916;exitDx=0;exitDy=0;exitPerimeter=0;" parent="1" source="iYkkBF6MIsekrppOnUCG-35" edge="1">
          <mxGeometry relative="1" as="geometry">
            <mxPoint x="104.20000000000006" y="70.00000000000003" as="sourcePoint" />
            <mxPoint x="140" y="122.03999999999999" as="targetPoint" />
            <Array as="points" />
          </mxGeometry>
        </mxCell>
        <mxCell id="iYkkBF6MIsekrppOnUCG-78" value="" style="endArrow=none;html=1;rounded=0;" parent="1" edge="1">
          <mxGeometry relative="1" as="geometry">
            <mxPoint x="110" y="200" as="sourcePoint" />
            <mxPoint x="170" y="160" as="targetPoint" />
          </mxGeometry>
        </mxCell>
        <mxCell id="iYkkBF6MIsekrppOnUCG-81" value="" style="endArrow=none;html=1;rounded=0;entryX=0.452;entryY=0.083;entryDx=0;entryDy=0;entryPerimeter=0;exitX=0.5;exitY=1;exitDx=0;exitDy=0;" parent="1" source="iYkkBF6MIsekrppOnUCG-26" target="iYkkBF6MIsekrppOnUCG-15" edge="1">
          <mxGeometry relative="1" as="geometry">
            <mxPoint x="540" y="394.05" as="sourcePoint" />
            <mxPoint x="700" y="394.05" as="targetPoint" />
          </mxGeometry>
        </mxCell>
        <mxCell id="iYkkBF6MIsekrppOnUCG-84" value="" style="endArrow=none;html=1;rounded=0;" parent="1" source="iYkkBF6MIsekrppOnUCG-27" target="iYkkBF6MIsekrppOnUCG-19" edge="1">
          <mxGeometry relative="1" as="geometry">
            <mxPoint x="530" y="90" as="sourcePoint" />
            <mxPoint x="690" y="90" as="targetPoint" />
          </mxGeometry>
        </mxCell>
        <mxCell id="iYkkBF6MIsekrppOnUCG-85" value="" style="endArrow=none;html=1;rounded=0;entryX=0.5;entryY=1;entryDx=0;entryDy=0;exitX=0.5;exitY=0;exitDx=0;exitDy=0;" parent="1" source="iYkkBF6MIsekrppOnUCG-27" target="iYkkBF6MIsekrppOnUCG-18" edge="1">
          <mxGeometry relative="1" as="geometry">
            <mxPoint x="530" y="90" as="sourcePoint" />
            <mxPoint x="690" y="90" as="targetPoint" />
          </mxGeometry>
        </mxCell>
        <mxCell id="iYkkBF6MIsekrppOnUCG-86" value="" style="endArrow=none;html=1;rounded=0;exitX=0.56;exitY=1.019;exitDx=0;exitDy=0;exitPerimeter=0;entryX=0;entryY=0;entryDx=0;entryDy=0;" parent="1" source="iYkkBF6MIsekrppOnUCG-17" target="iYkkBF6MIsekrppOnUCG-27" edge="1">
          <mxGeometry relative="1" as="geometry">
            <mxPoint x="530" y="90" as="sourcePoint" />
            <mxPoint x="690" y="90" as="targetPoint" />
          </mxGeometry>
        </mxCell>
        <mxCell id="Iz7ekUghLWr2bTcjMFQP-7" value="" style="endArrow=none;html=1;rounded=0;exitX=0.5;exitY=1;exitDx=0;exitDy=0;entryX=1;entryY=0;entryDx=0;entryDy=0;" edge="1" parent="1" source="iYkkBF6MIsekrppOnUCG-20" target="iYkkBF6MIsekrppOnUCG-28">
          <mxGeometry relative="1" as="geometry">
            <mxPoint x="370" y="280" as="sourcePoint" />
            <mxPoint x="530" y="280" as="targetPoint" />
          </mxGeometry>
        </mxCell>
        <mxCell id="Iz7ekUghLWr2bTcjMFQP-8" value="N" style="resizable=0;html=1;whiteSpace=wrap;align=right;verticalAlign=bottom;" connectable="0" vertex="1" parent="Iz7ekUghLWr2bTcjMFQP-7">
          <mxGeometry x="1" relative="1" as="geometry" />
        </mxCell>
        <mxCell id="Iz7ekUghLWr2bTcjMFQP-9" value="" style="endArrow=none;html=1;rounded=0;exitX=1;exitY=0.5;exitDx=0;exitDy=0;entryX=0;entryY=0.5;entryDx=0;entryDy=0;" edge="1" parent="1" source="iYkkBF6MIsekrppOnUCG-28" target="iYkkBF6MIsekrppOnUCG-26">
          <mxGeometry relative="1" as="geometry">
            <mxPoint x="370" y="280" as="sourcePoint" />
            <mxPoint x="530" y="280" as="targetPoint" />
          </mxGeometry>
        </mxCell>
        <mxCell id="Iz7ekUghLWr2bTcjMFQP-10" value="M" style="resizable=0;html=1;whiteSpace=wrap;align=left;verticalAlign=bottom;" connectable="0" vertex="1" parent="Iz7ekUghLWr2bTcjMFQP-9">
          <mxGeometry x="-1" relative="1" as="geometry" />
        </mxCell>
        <mxCell id="Iz7ekUghLWr2bTcjMFQP-11" value="N" style="resizable=0;html=1;whiteSpace=wrap;align=right;verticalAlign=bottom;" connectable="0" vertex="1" parent="Iz7ekUghLWr2bTcjMFQP-9">
          <mxGeometry x="1" relative="1" as="geometry" />
        </mxCell>
        <mxCell id="iYkkBF6MIsekrppOnUCG-21" value="Generates" style="shape=rhombus;perimeter=rhombusPerimeter;whiteSpace=wrap;html=1;align=center;sketch=1;curveFitting=1;jiggle=2;" parent="1" vertex="1">
          <mxGeometry x="300" y="345" width="100" height="50" as="geometry" />
        </mxCell>
        <mxCell id="Iz7ekUghLWr2bTcjMFQP-12" value="" style="endArrow=none;html=1;rounded=0;exitX=0.5;exitY=1;exitDx=0;exitDy=0;entryX=0.41;entryY=-0.059;entryDx=0;entryDy=0;entryPerimeter=0;" edge="1" parent="1" source="iYkkBF6MIsekrppOnUCG-27" target="iYkkBF6MIsekrppOnUCG-26">
          <mxGeometry relative="1" as="geometry">
            <mxPoint x="370" y="280" as="sourcePoint" />
            <mxPoint x="530" y="280" as="targetPoint" />
          </mxGeometry>
        </mxCell>
        <mxCell id="Iz7ekUghLWr2bTcjMFQP-13" value="N" style="resizable=0;html=1;whiteSpace=wrap;align=right;verticalAlign=bottom;" connectable="0" vertex="1" parent="Iz7ekUghLWr2bTcjMFQP-12">
          <mxGeometry x="1" relative="1" as="geometry" />
        </mxCell>
        <mxCell id="iYkkBF6MIsekrppOnUCG-22" value="Tagged_as" style="shape=rhombus;perimeter=rhombusPerimeter;whiteSpace=wrap;html=1;align=center;" parent="1" vertex="1">
          <mxGeometry x="490" y="230" width="110" height="40" as="geometry" />
        </mxCell>
        <mxCell id="Iz7ekUghLWr2bTcjMFQP-15" value="account status" style="ellipse;whiteSpace=wrap;html=1;align=center;" vertex="1" parent="1">
          <mxGeometry x="60" y="220" width="100" height="40" as="geometry" />
        </mxCell>
        <mxCell id="Iz7ekUghLWr2bTcjMFQP-16" value="" style="endArrow=none;html=1;rounded=0;" edge="1" parent="1" target="Iz7ekUghLWr2bTcjMFQP-15">
          <mxGeometry relative="1" as="geometry">
            <mxPoint x="180" y="160" as="sourcePoint" />
            <mxPoint x="550" y="260" as="targetPoint" />
          </mxGeometry>
        </mxCell>
        <mxCell id="Iz7ekUghLWr2bTcjMFQP-17" value="1" style="resizable=0;html=1;whiteSpace=wrap;align=right;verticalAlign=bottom;" connectable="0" vertex="1" parent="Iz7ekUghLWr2bTcjMFQP-16">
          <mxGeometry x="1" relative="1" as="geometry" />
        </mxCell>
        <mxCell id="Iz7ekUghLWr2bTcjMFQP-18" value="valence score" style="ellipse;whiteSpace=wrap;html=1;align=center;" vertex="1" parent="1">
          <mxGeometry x="650" y="140" width="100" height="40" as="geometry" />
        </mxCell>
        <mxCell id="Iz7ekUghLWr2bTcjMFQP-19" value="energy score" style="ellipse;whiteSpace=wrap;html=1;align=center;" vertex="1" parent="1">
          <mxGeometry x="325" y="90" width="100" height="40" as="geometry" />
        </mxCell>
        <mxCell id="Iz7ekUghLWr2bTcjMFQP-20" value="" style="endArrow=none;html=1;rounded=0;exitX=1;exitY=0.5;exitDx=0;exitDy=0;entryX=0;entryY=0.5;entryDx=0;entryDy=0;" edge="1" parent="1" source="Iz7ekUghLWr2bTcjMFQP-19" target="iYkkBF6MIsekrppOnUCG-27">
          <mxGeometry relative="1" as="geometry">
            <mxPoint x="390" y="260" as="sourcePoint" />
            <mxPoint x="550" y="260" as="targetPoint" />
          </mxGeometry>
        </mxCell>
        <mxCell id="Iz7ekUghLWr2bTcjMFQP-21" value="" style="endArrow=none;html=1;rounded=0;exitX=1;exitY=0.5;exitDx=0;exitDy=0;entryX=0;entryY=0.5;entryDx=0;entryDy=0;" edge="1" parent="1" source="iYkkBF6MIsekrppOnUCG-27" target="Iz7ekUghLWr2bTcjMFQP-18">
          <mxGeometry relative="1" as="geometry">
            <mxPoint x="390" y="260" as="sourcePoint" />
            <mxPoint x="550" y="260" as="targetPoint" />
          </mxGeometry>
        </mxCell>
        <mxCell id="Iz7ekUghLWr2bTcjMFQP-25" value="" style="endArrow=none;html=1;rounded=0;exitX=1;exitY=0.5;exitDx=0;exitDy=0;" edge="1" parent="1" source="iYkkBF6MIsekrppOnUCG-26" target="Iz7ekUghLWr2bTcjMFQP-29">
          <mxGeometry relative="1" as="geometry">
            <mxPoint x="580" y="260" as="sourcePoint" />
            <mxPoint x="740" y="370" as="targetPoint" />
          </mxGeometry>
        </mxCell>
        <mxCell id="Iz7ekUghLWr2bTcjMFQP-26" value="M" style="resizable=0;html=1;whiteSpace=wrap;align=left;verticalAlign=bottom;" connectable="0" vertex="1" parent="Iz7ekUghLWr2bTcjMFQP-25">
          <mxGeometry x="-1" relative="1" as="geometry" />
        </mxCell>
        <mxCell id="Iz7ekUghLWr2bTcjMFQP-27" value="N" style="resizable=0;html=1;whiteSpace=wrap;align=right;verticalAlign=bottom;" connectable="0" vertex="1" parent="Iz7ekUghLWr2bTcjMFQP-25">
          <mxGeometry x="1" relative="1" as="geometry" />
        </mxCell>
        <mxCell id="Iz7ekUghLWr2bTcjMFQP-29" value="Songs" style="whiteSpace=wrap;html=1;align=center;" vertex="1" parent="1">
          <mxGeometry x="750" y="350" width="100" height="40" as="geometry" />
        </mxCell>
        <mxCell id="Iz7ekUghLWr2bTcjMFQP-30" value="Title" style="ellipse;whiteSpace=wrap;html=1;align=center;" vertex="1" parent="1">
          <mxGeometry x="940" y="330" width="100" height="40" as="geometry" />
        </mxCell>
        <mxCell id="Iz7ekUghLWr2bTcjMFQP-31" value="genre" style="ellipse;whiteSpace=wrap;html=1;align=center;" vertex="1" parent="1">
          <mxGeometry x="950" y="460" width="100" height="40" as="geometry" />
        </mxCell>
        <mxCell id="Iz7ekUghLWr2bTcjMFQP-32" value="album name" style="ellipse;whiteSpace=wrap;html=1;align=center;" vertex="1" parent="1">
          <mxGeometry x="980" y="380" width="100" height="40" as="geometry" />
        </mxCell>
        <mxCell id="Iz7ekUghLWr2bTcjMFQP-33" value="" style="ellipse;whiteSpace=wrap;html=1;align=center;" vertex="1" parent="1">
          <mxGeometry x="900" y="265" width="100" height="40" as="geometry" />
        </mxCell>
        <mxCell id="Iz7ekUghLWr2bTcjMFQP-34" value="" style="shape=table;startSize=0;container=1;collapsible=1;childLayout=tableLayout;fixedRows=1;rowLines=0;fontStyle=0;align=center;resizeLast=1;strokeColor=none;fillColor=none;collapsible=0;" vertex="1" parent="1">
          <mxGeometry x="900" y="270" width="180" height="30" as="geometry" />
        </mxCell>
        <mxCell id="Iz7ekUghLWr2bTcjMFQP-35" value="" style="shape=tableRow;horizontal=0;startSize=0;swimlaneHead=0;swimlaneBody=0;fillColor=none;collapsible=0;dropTarget=0;points=[[0,0.5],[1,0.5]];portConstraint=eastwest;top=0;left=0;right=0;bottom=0;" vertex="1" parent="Iz7ekUghLWr2bTcjMFQP-34">
          <mxGeometry width="180" height="30" as="geometry" />
        </mxCell>
        <mxCell id="Iz7ekUghLWr2bTcjMFQP-36" value="FK" style="shape=partialRectangle;connectable=0;fillColor=none;top=0;left=0;bottom=0;right=0;fontStyle=0;overflow=hidden;whiteSpace=wrap;html=1;" vertex="1" parent="Iz7ekUghLWr2bTcjMFQP-35">
          <mxGeometry width="30" height="30" as="geometry">
            <mxRectangle width="30" height="30" as="alternateBounds" />
          </mxGeometry>
        </mxCell>
        <mxCell id="Iz7ekUghLWr2bTcjMFQP-37" value="artist_ID" style="shape=partialRectangle;connectable=0;fillColor=none;top=0;left=0;bottom=0;right=0;align=left;spacingLeft=6;fontStyle=0;overflow=hidden;whiteSpace=wrap;html=1;" vertex="1" parent="Iz7ekUghLWr2bTcjMFQP-35">
          <mxGeometry x="30" width="150" height="30" as="geometry">
            <mxRectangle width="150" height="30" as="alternateBounds" />
          </mxGeometry>
        </mxCell>
        <mxCell id="Iz7ekUghLWr2bTcjMFQP-38" value="energy" style="ellipse;whiteSpace=wrap;html=1;align=center;" vertex="1" parent="1">
          <mxGeometry x="750" y="480" width="100" height="40" as="geometry" />
        </mxCell>
        <mxCell id="Iz7ekUghLWr2bTcjMFQP-39" value="valence" style="ellipse;whiteSpace=wrap;html=1;align=center;" vertex="1" parent="1">
          <mxGeometry x="680" y="420" width="100" height="40" as="geometry" />
        </mxCell>
        <mxCell id="Iz7ekUghLWr2bTcjMFQP-40" value="duration" style="ellipse;whiteSpace=wrap;html=1;align=center;" vertex="1" parent="1">
          <mxGeometry x="820" y="435" width="100" height="40" as="geometry" />
        </mxCell>
        <mxCell id="Iz7ekUghLWr2bTcjMFQP-41" value="" style="endArrow=none;html=1;rounded=0;entryX=0.5;entryY=0;entryDx=0;entryDy=0;exitX=0.5;exitY=0.995;exitDx=0;exitDy=0;exitPerimeter=0;" edge="1" parent="1" source="Iz7ekUghLWr2bTcjMFQP-29" target="Iz7ekUghLWr2bTcjMFQP-38">
          <mxGeometry relative="1" as="geometry">
            <mxPoint x="760" y="390" as="sourcePoint" />
            <mxPoint x="920" y="390" as="targetPoint" />
          </mxGeometry>
        </mxCell>
        <mxCell id="Iz7ekUghLWr2bTcjMFQP-42" value="" style="endArrow=none;html=1;rounded=0;exitX=0.118;exitY=1.144;exitDx=0;exitDy=0;exitPerimeter=0;entryX=1;entryY=0;entryDx=0;entryDy=0;" edge="1" parent="1" source="Iz7ekUghLWr2bTcjMFQP-35" target="Iz7ekUghLWr2bTcjMFQP-29">
          <mxGeometry relative="1" as="geometry">
            <mxPoint x="585" y="320" as="sourcePoint" />
            <mxPoint x="745" y="320" as="targetPoint" />
          </mxGeometry>
        </mxCell>
        <mxCell id="Iz7ekUghLWr2bTcjMFQP-43" value="" style="endArrow=none;html=1;rounded=0;exitX=0.371;exitY=0.015;exitDx=0;exitDy=0;exitPerimeter=0;entryX=0.456;entryY=1.137;entryDx=0;entryDy=0;entryPerimeter=0;" edge="1" parent="1" source="Iz7ekUghLWr2bTcjMFQP-29" target="iYkkBF6MIsekrppOnUCG-56">
          <mxGeometry relative="1" as="geometry">
            <mxPoint x="580" y="300" as="sourcePoint" />
            <mxPoint x="740" y="300" as="targetPoint" />
          </mxGeometry>
        </mxCell>
        <mxCell id="Iz7ekUghLWr2bTcjMFQP-44" value="" style="endArrow=none;html=1;rounded=0;" edge="1" parent="1">
          <mxGeometry relative="1" as="geometry">
            <mxPoint x="850" y="390.00421052631583" as="sourcePoint" />
            <mxPoint x="990" y="386.32" as="targetPoint" />
          </mxGeometry>
        </mxCell>
        <mxCell id="Iz7ekUghLWr2bTcjMFQP-45" value="" style="endArrow=none;html=1;rounded=0;exitX=0.25;exitY=1;exitDx=0;exitDy=0;entryX=0.5;entryY=0;entryDx=0;entryDy=0;" edge="1" parent="1" source="Iz7ekUghLWr2bTcjMFQP-29" target="Iz7ekUghLWr2bTcjMFQP-39">
          <mxGeometry relative="1" as="geometry">
            <mxPoint x="580" y="360" as="sourcePoint" />
            <mxPoint x="740" y="390" as="targetPoint" />
          </mxGeometry>
        </mxCell>
        <mxCell id="Iz7ekUghLWr2bTcjMFQP-46" value="" style="endArrow=none;html=1;rounded=0;" edge="1" parent="1" target="iYkkBF6MIsekrppOnUCG-26">
          <mxGeometry relative="1" as="geometry">
            <mxPoint x="580" y="360" as="sourcePoint" />
            <mxPoint x="740" y="360" as="targetPoint" />
          </mxGeometry>
        </mxCell>
        <mxCell id="iYkkBF6MIsekrppOnUCG-26" value="Playlist" style="whiteSpace=wrap;html=1;align=center;" parent="1" vertex="1">
          <mxGeometry x="500" y="345" width="100" height="40" as="geometry" />
        </mxCell>
        <mxCell id="Iz7ekUghLWr2bTcjMFQP-47" value="" style="endArrow=none;html=1;rounded=0;entryX=0.364;entryY=-0.029;entryDx=0;entryDy=0;entryPerimeter=0;" edge="1" parent="1" target="Iz7ekUghLWr2bTcjMFQP-31">
          <mxGeometry relative="1" as="geometry">
            <mxPoint x="845" y="390" as="sourcePoint" />
            <mxPoint x="1005" y="390" as="targetPoint" />
          </mxGeometry>
        </mxCell>
        <mxCell id="Iz7ekUghLWr2bTcjMFQP-48" value="" style="endArrow=none;html=1;rounded=0;exitX=0.75;exitY=1;exitDx=0;exitDy=0;entryX=0;entryY=0;entryDx=0;entryDy=0;" edge="1" parent="1" source="Iz7ekUghLWr2bTcjMFQP-29" target="Iz7ekUghLWr2bTcjMFQP-40">
          <mxGeometry relative="1" as="geometry">
            <mxPoint x="580" y="360" as="sourcePoint" />
            <mxPoint x="740" y="360" as="targetPoint" />
          </mxGeometry>
        </mxCell>
      </root>
    </mxGraphModel>
  </diagram>
</mxfile>
